
        <svg xmlns="http://www.w3.org/2000/svg" xmlns:xlink="http://www.w3.org/1999/xlink" version="1.1" width="3145.883946695255" 
        height="611.2570287595059" viewBox="0 0 3145.883946695255 611.2570287595059">
			
			<g transform="scale(7.294197334762737) translate(10, 10)">
				<defs id="SvgjsDefs2929"><linearGradient id="SvgjsLinearGradient2936"><stop id="SvgjsStop2937" stop-color="#905e26" offset="0"></stop><stop id="SvgjsStop2938" stop-color="#f5ec9b" offset="0.5"></stop><stop id="SvgjsStop2939" stop-color="#905e26" offset="1"></stop></linearGradient></defs><g id="SvgjsG2930" featureKey="nameLeftFeature-0" transform="matrix(1.4626420736312866,0,0,1.4626420736312866,6.2448283939972224,13.575184102538085)" fill="#d7b459"><path d="M16.2 6 l0 14 l-3 0 l0 -7.44 l-3.26 7.44 l-2.52 0 l-3.22 -7.4 l0 7.4 l-3 0 l0 -14 l2.88 0 l4.62 10.1 l4.62 -10.1 l2.88 0 z M23.615000000000002 5.76 c2.46 0 4.02 1.54 4.76 2.9 l-2.16 1.28 c-0.76 -1.06 -1.5 -1.6 -2.6 -1.6 c-0.98 0 -1.7 0.58 -1.7 1.38 s0.46 1.22 1.56 1.62 l0.96 0.34 c3.1 1.1 4.32 2.48 4.32 4.4 c0 2.82 -2.68 4.22 -5.06 4.22 c-2.52 0 -4.48 -1.5 -5.16 -3.46 l2.24 -1.18 c0.5 1.02 1.34 2 2.92 2 c1.14 0 2.02 -0.5 2.02 -1.54 c0 -1 -0.6 -1.44 -2.12 -2.02 l-0.86 -0.3 c-2.06 -0.74 -3.72 -1.76 -3.72 -4.2 c0 -2.24 2.1 -3.84 4.6 -3.84 z M50.705000000000005 12.559999999999999 c0.62 4.7 -2.44 7.64 -6.22 7.64 c-3.98 0 -7.26 -2.94 -7.26 -7.2 s3.36 -7.2 7.26 -7.2 c1.86 0 3.5 0.6 4.7 1.66 l-1.76 1.98 c-0.74 -0.52 -1.74 -0.9 -2.76 -0.9 c-2.54 0 -4.4 1.86 -4.4 4.46 s1.8 4.46 4.22 4.46 c1.84 0 3.12 -0.66 3.52 -2.42 l-3.3 0 l0 -2.48 l6 0 z M56.22 17.32 l5.5 0 l0 2.68 l-8.42 0 l0 -14 l2.92 0 l0 11.32 z M71.115 5.800000000000001 c3.9 0 7.26 2.94 7.26 7.2 s-3.36 7.2 -7.26 7.2 s-7.26 -2.94 -7.26 -7.2 s3.36 -7.2 7.26 -7.2 z M71.115 17.46 c2.36 0 4.22 -1.86 4.22 -4.46 s-1.86 -4.46 -4.22 -4.46 s-4.22 1.86 -4.22 4.46 s1.86 4.46 4.22 4.46 z M88.63 12.24 c1.48 0.4 2.88 1.72 2.88 3.66 c0 2.54 -1.6 4.1 -5.08 4.1 l-5.52 0 l0 -14 l5.22 0 c2.9 0 4.36 1.64 4.36 3.52 c0 1.48 -0.96 2.32 -1.86 2.72 z M85.85 8.56 l-2.02 0 l0 2.82 l2.02 0 c1.24 0 1.74 -0.58 1.74 -1.42 c0 -0.9 -0.58 -1.4 -1.74 -1.4 z M86.27 17.44 c1.6 0 2.32 -0.66 2.32 -1.9 c0 -1.06 -0.72 -1.8 -2.44 -1.8 l-2.32 0 l0 3.7 l2.44 0 z M105.02499999999999 20 l-1.06 -2.5 l-6.76 0 l-1.06 2.5 l-3.1 0 l6.22 -14 l2.64 0 l6.24 14 l-3.12 0 z M98.225 15.120000000000001 l4.72 0 l-2.36 -5.54 z M113.1 17.32 l5.5 0 l0 2.68 l-8.42 0 l0 -14 l2.92 0 l0 11.32 z"></path></g><g id="SvgjsG2931" featureKey="inlineSymbolFeature-0" transform="matrix(0.07901962846517563,0,0,0.07901962846517563,184.39040937302852,-7.609590626971482)" fill="url(#SvgjsLinearGradient2936)"><g xmlns="http://www.w3.org/2000/svg"><polygon points="500,96.3 445.7,127.6 554.3,127.6  "></polygon><polygon points="540.5,820.6 459.5,820.6 500,843.9  "></polygon><polygon points="500,156.1 459.5,179.4 540.5,179.4  "></polygon><polygon points="414.1,179.4 464.5,150.4 406.3,150.4 355.9,179.4  "></polygon><polygon points="298.1,150.4 266.8,204.7 360.9,150.4  "></polygon><polygon points="304.7,242.6 374.8,202.2 328,202.2  "></polygon><polygon points="585.9,179.4 644.1,179.4 593.7,150.4 535.5,150.4  "></polygon><polygon points="328,797.8 374.8,797.8 304.7,757.4  "></polygon><polygon points="757.4,304.7 797.8,374.8 797.8,328  "></polygon><polygon points="625.2,202.2 695.3,242.6 672,202.2  "></polygon><polygon points="843.9,500 820.6,459.5 820.6,540.5  "></polygon><polygon points="849.6,298.1 795.3,266.8 849.6,360.9  "></polygon><polygon points="797.8,625.2 757.4,695.3 797.8,672  "></polygon><polygon points="849.6,406.3 820.6,355.9 820.6,414.1 849.6,464.5  "></polygon><polygon points="701.9,150.4 639.1,150.4 733.2,204.7  "></polygon><polygon points="695.3,757.4 625.2,797.8 672,797.8  "></polygon><polygon points="734.7,265.3 785,294.4 756,244 705.6,215  "></polygon><polygon points="294.4,215 244,244 215,294.4 265.3,265.3  "></polygon><polygon points="179.4,355.9 150.4,406.3 150.4,464.5 179.4,414.1  "></polygon><polygon points="705.6,785 756,756 785,705.6 734.7,734.7  "></polygon><polygon points="585.9,820.6 535.5,849.6 593.7,849.6 644.1,820.6  "></polygon><polygon points="701.9,849.6 733.2,795.3 639.1,849.6  "></polygon><polygon points="500,903.7 554.3,872.4 445.7,872.4  "></polygon><polygon points="820.6,585.9 820.6,644.1 849.6,593.7 849.6,535.5  "></polygon><polygon points="872.4,445.7 872.4,554.3 903.7,500  "></polygon><polygon points="414.1,820.6 355.9,820.6 406.3,849.6 464.5,849.6  "></polygon><polygon points="849.6,701.9 849.6,639.1 795.3,733.2  "></polygon><polygon points="150.4,593.7 179.4,644.1 179.4,585.9 150.4,535.5  "></polygon><polygon points="156.1,500 179.4,540.5 179.4,459.5  "></polygon><polygon points="150.4,298.1 150.4,360.9 204.7,266.8  "></polygon><polygon points="202.2,328 202.2,374.8 242.6,304.7  "></polygon><polygon points="242.6,695.3 202.2,625.2 202.2,672  "></polygon><polygon points="265.3,734.7 215,705.6 244,756 294.4,785  "></polygon><polygon points="298.1,849.6 360.9,849.6 266.8,795.3  "></polygon><polygon points="150.4,701.9 204.7,733.2 150.4,639.1  "></polygon><polygon points="127.6,554.3 127.6,445.7 96.3,500  "></polygon></g></g><g id="SvgjsG2932" featureKey="nameRightFeature-0" transform="matrix(1.5168139934539795,0,0,1.5168139934539795,257.17752884272136,12.263153884113569)" fill="#d7b459"><path d="M12.215 5.76 c2.46 0 4.02 1.54 4.76 2.9 l-2.16 1.28 c-0.76 -1.06 -1.5 -1.6 -2.6 -1.6 c-0.98 0 -1.7 0.58 -1.7 1.38 s0.46 1.22 1.56 1.62 l0.96 0.34 c3.1 1.1 4.32 2.48 4.32 4.4 c0 2.82 -2.68 4.22 -5.06 4.22 c-2.52 0 -4.48 -1.5 -5.16 -3.46 l2.24 -1.18 c0.5 1.02 1.34 2 2.92 2 c1.14 0 2.02 -0.5 2.02 -1.54 c0 -1 -0.6 -1.44 -2.12 -2.02 l-0.86 -0.3 c-2.06 -0.74 -3.72 -1.76 -3.72 -4.2 c0 -2.24 2.1 -3.84 4.6 -3.84 z M22.610000000000003 17.32 l5.92 0 l0 2.68 l-6.32 0 l-2.52 0 l0 -14 l2.92 0 l5.74 0 l0 2.68 l-5.74 0 l0 2.96 l4.34 0 l0 2.64 l-4.34 0 l0 3.04 z M42.085 20 l-3.1 0 l-2.98 -4.66 l-0.04 0 l-1.98 0 l0 4.66 l-2.92 0 l0 -14 l4.9 0 c3.14 0 5.18 1.9 5.18 4.76 c0 1.9 -0.92 3.32 -2.48 4.04 z M33.985 8.68 l0 4.14 l1.8 0 c1.44 0 2.44 -0.56 2.44 -2.06 c0 -1.48 -1 -2.08 -2.44 -2.08 l-1.8 0 z M55.50000000000001 6 l3.12 0 l-6.24 14 l-2.64 0 l-6.22 -14 l3.1 0 l4.44 10.42 z M63.575 6 l0 14 l-2.92 0 l0 -14 l2.92 0 z M78.17000000000002 18.5 c-1.24 1.12 -2.9 1.7 -4.76 1.7 c-3.92 0 -7.3 -2.94 -7.3 -7.2 s3.38 -7.2 7.3 -7.2 c1.84 0 3.48 0.6 4.68 1.66 l-1.76 1.98 c-0.74 -0.52 -1.74 -0.9 -2.76 -0.9 c-2.52 0 -4.42 1.86 -4.42 4.46 s1.9 4.46 4.42 4.46 c1.06 0 2.1 -0.4 2.86 -1 z M83.42500000000001 17.32 l5.92 0 l0 2.68 l-6.32 0 l-2.52 0 l0 -14 l2.92 0 l5.74 0 l0 2.68 l-5.74 0 l0 2.96 l4.34 0 l0 2.64 l-4.34 0 l0 3.04 z M96.46000000000001 5.76 c2.46 0 4.02 1.54 4.76 2.9 l-2.16 1.28 c-0.76 -1.06 -1.5 -1.6 -2.6 -1.6 c-0.98 0 -1.7 0.58 -1.7 1.38 s0.46 1.22 1.56 1.62 l0.96 0.34 c3.1 1.1 4.32 2.48 4.32 4.4 c0 2.82 -2.68 4.22 -5.06 4.22 c-2.52 0 -4.48 -1.5 -5.16 -3.46 l2.24 -1.18 c0.5 1.02 1.34 2 2.92 2 c1.14 0 2.02 -0.5 2.02 -1.54 c0 -1 -0.6 -1.44 -2.12 -2.02 l-0.86 -0.3 c-2.06 -0.74 -3.72 -1.76 -3.72 -4.2 c0 -2.24 2.1 -3.84 4.6 -3.84 z"></path></g>
			</g>
		</svg>
	